<?xml version="1.0" encoding="UTF-8"?>
<svg width="64px" height="64px" viewBox="0 0 64 64" xmlns="http://www.w3.org/2000/svg" xmlns:xlink="http://www.w3.org/1999/xlink" version="1.1">
 <!-- Generated by Pixelmator Pro 2.1.2 -->
 <path id="Moon" d="M45.61 40.488 C42.309 40.488 39.329 39.992 36.671 39 34.012 38.008 31.736 36.577 29.841 34.707 27.947 32.837 26.496 30.581 25.488 27.939 24.48 25.297 23.976 22.317 23.976 19 23.976 18.089 24.045 17.093 24.183 16.012 24.321 14.931 24.504 13.886 24.732 12.878 24.959 11.87 25.219 11.024 25.512 10.341 25.626 10.065 25.699 9.833 25.732 9.646 25.764 9.459 25.78 9.309 25.78 9.195 25.78 8.87 25.659 8.557 25.415 8.256 25.171 7.955 24.813 7.805 24.341 7.805 24.211 7.805 24.016 7.825 23.756 7.866 23.496 7.906 23.228 7.976 22.951 8.073 19.943 9.276 17.309 11.077 15.049 13.476 12.789 15.874 11.028 18.642 9.768 21.78 8.508 24.919 7.878 28.195 7.878 31.61 7.878 35.203 8.516 38.496 9.793 41.488 11.069 44.48 12.85 47.077 15.134 49.28 17.419 51.484 20.093 53.187 23.159 54.39 26.224 55.594 29.537 56.195 33.098 56.195 35.732 56.195 38.244 55.825 40.634 55.085 43.024 54.346 45.219 53.321 47.22 52.012 49.22 50.703 50.951 49.183 52.415 47.451 53.878 45.72 54.984 43.862 55.732 41.878 55.846 41.585 55.919 41.313 55.951 41.061 55.984 40.809 56 40.626 56 40.512 56 40.057 55.846 39.691 55.537 39.415 55.228 39.138 54.902 39 54.561 39 54.285 39 53.935 39.073 53.512 39.22 52.569 39.528 51.39 39.817 49.976 40.085 48.561 40.354 47.106 40.488 45.61 40.488 Z" fill="none" stroke="#ffffff" stroke-width="4" stroke-opacity="1" stroke-linejoin="round" stroke-linecap="round"/>
</svg>
