<?xml version="1.0" encoding="UTF-8"?>
<svg width="64px" height="64px" viewBox="0 0 64 64" xmlns="http://www.w3.org/2000/svg" xmlns:xlink="http://www.w3.org/1999/xlink" version="1.1">
 <!-- Generated by Pixelmator Pro 2.1.2 -->
 <path id="Ellipse" d="M49 32 C49 22.611 41.389 15 32 15 22.611 15 15 22.611 15 32 15 41.389 22.611 49 32 49 41.389 49 49 41.389 49 32 Z" fill="none" stroke="#ffffff" stroke-width="4" stroke-opacity="1" stroke-linejoin="round" stroke-linecap="round"/>
 <path id="RayS" d="M32 60 L32 55" fill="none" stroke="#ffffff" stroke-width="4" stroke-opacity="1" stroke-linejoin="round" stroke-linecap="round"/>
 <path id="RaySE" d="M53 52 L49 48" fill="none" stroke="#ffffff" stroke-width="4" stroke-opacity="1" stroke-linejoin="round" stroke-linecap="round"/>
 <path id="RaySW" d="M11 52 L15 48" fill="none" stroke="#ffffff" stroke-width="4" stroke-opacity="1" stroke-linejoin="round" stroke-linecap="round"/>
 <path id="RayE" d="M55 32 L60 32" fill="none" stroke="#ffffff" stroke-width="4" stroke-opacity="1" stroke-linejoin="round" stroke-linecap="round"/>
 <path id="RayW" d="M4 32 L9 32" fill="none" stroke="#ffffff" stroke-width="4" stroke-opacity="1" stroke-linejoin="round" stroke-linecap="round"/>
 <path id="RayNE" d="M48 15 L52 11" fill="none" stroke="#ffffff" stroke-width="4" stroke-opacity="1" stroke-linejoin="round" stroke-linecap="round"/>
 <path id="RayNW" d="M16 15 L12 11" fill="none" stroke="#ffffff" stroke-width="4" stroke-opacity="1" stroke-linejoin="round" stroke-linecap="round"/>
 <path id="RayN" d="M32 9 L32 4" fill="none" stroke="#ffffff" stroke-width="4" stroke-opacity="1" stroke-linejoin="round" stroke-linecap="round"/>
</svg>
