<?xml version="1.0" encoding="UTF-8" standalone="no"?>
<!DOCTYPE svg PUBLIC "-//W3C//DTD SVG 1.1//EN" "http://www.w3.org/Graphics/SVG/1.1/DTD/svg11.dtd">
<svg width="100%" height="100%" viewBox="0 0 15 15" version="1.1" xmlns="http://www.w3.org/2000/svg" xmlns:xlink="http://www.w3.org/1999/xlink" xml:space="preserve" xmlns:serif="http://www.serif.com/" style="fill-rule:evenodd;clip-rule:evenodd;">
    <g transform="matrix(1.083333,0,0,1.083333,-0.625,-0.625)">
        <path d="M7.5,13.5C10.814,13.5 13.5,10.814 13.5,7.5C13.5,4.186 10.814,1.5 7.5,1.5C4.186,1.5 1.5,4.186 1.5,7.5C1.5,10.814 4.186,13.5 7.5,13.5Z" style="fill:none;fill-rule:nonzero;stroke:white;stroke-width:1.5px;"/>
    </g>
    <g transform="matrix(0.666667,0,0,0.666667,2.5,2.5)">
        <path d="M7.5,10.5C9.157,10.5 10.5,9.157 10.5,7.5C10.5,5.843 9.157,4.5 7.5,4.5C5.843,4.5 4.5,5.843 4.5,7.5C4.5,9.157 5.843,10.5 7.5,10.5Z" style="fill-rule:nonzero;"/>
    </g>
</svg>
