<?xml version="1.0" encoding="UTF-8" standalone="no"?>
<!DOCTYPE svg PUBLIC "-//W3C//DTD SVG 1.1//EN" "http://www.w3.org/Graphics/SVG/1.1/DTD/svg11.dtd">
<svg width="100%" height="100%" viewBox="0 0 15 15" version="1.1" xmlns="http://www.w3.org/2000/svg" xmlns:xlink="http://www.w3.org/1999/xlink" xml:space="preserve" xmlns:serif="http://www.serif.com/" style="fill-rule:evenodd;clip-rule:evenodd;stroke-linejoin:round;stroke-miterlimit:2;">
    <g transform="matrix(0.909091,0,0,0.26087,1.090909,8.385678)">
        <path d="M7.288,17.291C7.137,17.542 6.963,17.542 6.812,17.291L2.083,9.395C1.852,9.008 1.728,8.115 1.784,7.242C1.841,6.369 2.064,5.75 2.321,5.75L11.779,5.75C12.036,5.75 12.259,6.369 12.316,7.242C12.372,8.115 12.248,9.008 12.017,9.395L7.288,17.291ZM7.28,-20.274L11.926,-12.802C12.161,-12.425 12.288,-11.53 12.233,-10.651C12.178,-9.771 11.954,-9.145 11.696,-9.145L2.404,-9.145C2.146,-9.145 1.922,-9.771 1.867,-10.651C1.812,-11.53 1.939,-12.425 2.174,-12.802L6.82,-20.274C6.966,-20.51 7.134,-20.51 7.28,-20.274ZM11.329,-4.545C11.835,-4.545 12.246,-3.257 12.246,-1.67C12.246,-0.083 11.835,1.205 11.329,1.205L2.771,1.205C2.265,1.205 1.854,-0.083 1.854,-1.67C1.854,-3.257 2.265,-4.545 2.771,-4.545L11.329,-4.545Z"/>
        <path d="M-0.04,2.854L-0.065,2.712L-0.272,0.611L-0.346,-1.67L-0.272,-3.951L-0.065,-6.052L0.012,-6.497L-0.282,-9.006L-0.324,-12.277L-0.059,-15.326L0.478,-17.903L1.252,-19.763L5.898,-27.235L6.463,-27.897L7.05,-28.117L7.637,-27.897L8.202,-27.235L12.848,-19.763L13.622,-17.903L14.159,-15.326L14.424,-12.277L14.382,-9.006L14.088,-6.497L14.165,-6.052L14.372,-3.951L14.446,-1.67L14.372,0.611L14.165,2.712L14.14,2.854L14.461,5.543L14.51,8.796L14.255,11.838L13.729,14.423L12.967,16.309L8.238,24.205L7.656,24.911L7.05,25.146L6.444,24.911L5.862,24.205L1.133,16.309L0.371,14.423L-0.155,11.838L-0.41,8.796L-0.361,5.543L-0.04,2.854ZM7.28,-20.274C7.134,-20.51 6.966,-20.51 6.82,-20.274L2.174,-12.802C1.939,-12.425 1.812,-11.53 1.867,-10.651C1.922,-9.771 2.146,-9.145 2.404,-9.145L11.696,-9.145C11.954,-9.145 12.178,-9.771 12.233,-10.651C12.288,-11.53 12.161,-12.425 11.926,-12.802L7.28,-20.274ZM11.329,-4.545L2.771,-4.545C2.265,-4.545 1.854,-3.257 1.854,-1.67C1.854,-0.083 2.265,1.205 2.771,1.205L11.329,1.205C11.835,1.205 12.246,-0.083 12.246,-1.67C12.246,-3.257 11.835,-4.545 11.329,-4.545ZM7.288,17.291L12.017,9.395C12.248,9.008 12.372,8.115 12.316,7.242C12.259,6.369 12.036,5.75 11.779,5.75L2.321,5.75C2.064,5.75 1.841,6.369 1.784,7.242C1.728,8.115 1.852,9.008 2.083,9.395L6.812,17.291C6.963,17.542 7.137,17.542 7.288,17.291Z" style="fill:white;"/>
    </g>
</svg>
