<?xml version="1.0" encoding="UTF-8" standalone="no"?>
<!DOCTYPE svg PUBLIC "-//W3C//DTD SVG 1.1//EN" "http://www.w3.org/Graphics/SVG/1.1/DTD/svg11.dtd">
<svg width="100%" height="100%" viewBox="0 0 200 200" version="1.1" xmlns="http://www.w3.org/2000/svg" xmlns:xlink="http://www.w3.org/1999/xlink" xml:space="preserve" xmlns:serif="http://www.serif.com/" style="fill-rule:evenodd;clip-rule:evenodd;stroke-linejoin:round;stroke-miterlimit:2;">
    <g transform="matrix(4.16667,0,0,4.16667,0,0)">
        <path d="M0,24C0,10.745 10.745,0 24,0C37.255,0 48,10.745 48,24C48,37.255 37.255,48 24,48C10.745,48 0,37.255 0,24Z" style="fill:rgb(49,197,240);fill-rule:nonzero;"/>
        <path d="M2.4,24C2.4,12.071 12.071,2.4 24,2.4C35.93,2.4 45.6,12.071 45.6,24C45.6,35.929 35.93,45.6 24,45.6C12.071,45.6 2.4,35.929 2.4,24Z" style="fill:url(#_Radial1);fill-rule:nonzero;"/>
        <path d="M12,13.914C12,13.788 12.269,13.694 12.426,13.694C13.649,13.631 15.445,13.6 17.326,13.6C22.595,13.6 24.648,16.485 24.648,20.186C24.648,25.016 21.145,27.086 16.848,27.086C16.455,27.086 16.201,27.077 15.971,27.068C15.778,27.061 15.602,27.055 15.374,27.055L15.374,34.357C15.374,34.514 15.311,34.577 15.154,34.577L12.22,34.577C12.063,34.577 12,34.514 12,34.357L12,13.914ZM15.374,24.013C15.813,24.044 16.158,24.044 16.911,24.044C19.138,24.044 21.229,23.26 21.229,20.249C21.229,17.834 19.733,16.611 17.193,16.611C16.44,16.611 15.719,16.642 15.374,16.673L15.374,24.013ZM29.727,23.134C29.727,22.507 30.229,21.754 31.734,21.754C32.958,21.754 34.203,22.068 35.05,22.57C35.238,22.633 35.332,22.538 35.332,22.382L35.332,19.778C35.332,19.653 35.301,19.496 35.144,19.402C34.517,19.12 33.365,18.869 31.734,18.869C28.41,18.869 26.497,20.907 26.497,23.354C26.497,25.549 27.626,26.866 30.323,28.152C32.236,29.156 32.676,29.752 32.676,30.442C32.676,31.289 32.048,31.916 30.543,31.916C29.288,31.916 27.905,31.571 26.713,30.787C26.588,30.693 26.494,30.756 26.494,30.944L26.494,33.735C26.494,33.892 26.525,33.986 26.65,34.049C27.466,34.519 28.881,34.864 30.543,34.864C33.679,34.864 36,33.233 36,30.191C36,28.153 35.059,26.773 32.08,25.33C30.072,24.295 29.727,23.824 29.727,23.134Z" style="fill:rgb(49,197,240);"/>
    </g>
    <defs>
        <radialGradient id="_Radial1" cx="0" cy="0" r="1" gradientUnits="userSpaceOnUse" gradientTransform="matrix(28.1648,0,0,28.1648,19.6234,16.7905)"><stop offset="0" style="stop-color:rgb(14,14,23);stop-opacity:0.85"/><stop offset="0.77" style="stop-color:rgb(14,14,23);stop-opacity:1"/><stop offset="1" style="stop-color:rgb(14,14,23);stop-opacity:1"/></radialGradient>
    </defs>
</svg>
