<?xml version="1.0" encoding="UTF-8" standalone="no"?>
<!DOCTYPE svg PUBLIC "-//W3C//DTD SVG 1.1//EN" "http://www.w3.org/Graphics/SVG/1.1/DTD/svg11.dtd">
<svg width="100%" height="100%" viewBox="0 0 100 100" version="1.1" xmlns="http://www.w3.org/2000/svg" xmlns:xlink="http://www.w3.org/1999/xlink" xml:space="preserve" xmlns:serif="http://www.serif.com/" style="fill-rule:evenodd;clip-rule:evenodd;stroke-linejoin:round;stroke-miterlimit:2;">
    <circle cx="50" cy="50" r="50" style="fill:white;"/>
    <g transform="matrix(1,0,0,1,-0.5,-2)">
        <g transform="matrix(0.803922,0,0,0.803922,17,19)">
            <path d="M51,4.176C51,1.871 49.129,0 46.824,0L4.176,0C1.871,0 0,1.871 0,4.176L0,46.824C0,49.129 1.871,51 4.176,51L46.824,51C49.129,51 51,49.129 51,46.824L51,4.176Z"/>
        </g>
        <g transform="matrix(0.759259,0,0,0.759259,43,44)">
            <circle cx="27" cy="27" r="27"/>
            <path d="M27,-2.744C10.584,-2.744 -2.744,10.584 -2.744,27C-2.744,43.416 10.584,56.744 27,56.744C43.416,56.744 56.744,43.416 56.744,27C56.744,10.584 43.416,-2.744 27,-2.744ZM27,0C41.902,0 54,12.098 54,27C54,41.902 41.902,54 27,54C12.098,54 0,41.902 0,27C0,12.098 12.098,0 27,0Z" style="fill:white;"/>
        </g>
    </g>
</svg>
