<?xml version="1.0" encoding="UTF-8" standalone="no"?>
<!DOCTYPE svg PUBLIC "-//W3C//DTD SVG 1.1//EN" "http://www.w3.org/Graphics/SVG/1.1/DTD/svg11.dtd">
<svg width="100%" height="100%" viewBox="0 0 200 200" version="1.1" xmlns="http://www.w3.org/2000/svg" xmlns:xlink="http://www.w3.org/1999/xlink" xml:space="preserve" xmlns:serif="http://www.serif.com/" style="fill-rule:evenodd;clip-rule:evenodd;stroke-linejoin:round;stroke-miterlimit:2;">
    <g transform="matrix(4.16667,0,0,4.16667,0,0)">
        <path d="M0,24C0,10.745 10.745,0 24,0C37.255,0 48,10.745 48,24C48,37.255 37.255,48 24,48C10.745,48 0,37.255 0,24Z" style="fill:rgb(243,112,33);fill-rule:nonzero;"/>
        <path d="M2.4,24C2.4,12.071 12.071,2.4 24,2.4C35.93,2.4 45.6,12.071 45.6,24C45.6,35.929 35.93,45.6 24,45.6C12.071,45.6 2.4,35.929 2.4,24Z" style="fill:url(#_Radial1);fill-rule:nonzero;"/>
        <path d="M29.747,15.08C29.747,13.868 30.586,13.154 31.674,13.154C32.823,13.154 33.6,13.93 33.6,15.08C33.6,16.322 32.792,17.006 31.642,17.006C30.524,17.006 29.747,16.322 29.747,15.08ZM14.534,34.249L16.026,28.604L22.053,28.604L23.606,34.28C23.637,34.404 23.73,34.441 23.886,34.441L26.992,34.441C27.148,34.441 27.179,34.347 27.148,34.192L21.152,13.869C21.121,13.713 21.058,13.682 20.934,13.682L16.989,13.682C16.895,13.682 16.833,13.744 16.833,13.869C16.802,14.801 16.74,15.095 16.647,15.437L11.303,34.161C11.273,34.379 11.303,34.441 11.489,34.441L14.255,34.441C14.441,34.441 14.504,34.404 14.534,34.249ZM20.682,23.26L20.682,23.26C20.915,24.149 21.125,24.948 21.276,25.544L16.834,25.544L16.884,25.354C17.653,22.464 18.613,18.853 19.008,16.695L19.039,16.695C19.372,18.269 20.1,21.043 20.682,23.26ZM30.176,19.142C30.02,19.142 29.958,19.205 29.958,19.36L29.958,34.192C29.958,34.347 30.02,34.441 30.207,34.441L33.13,34.441C33.316,34.441 33.347,34.379 33.347,34.223L33.347,19.36C33.347,19.205 33.285,19.142 33.13,19.142L30.176,19.142Z" style="fill:rgb(255,127,24);"/>
    </g>
    <defs>
        <radialGradient id="_Radial1" cx="0" cy="0" r="1" gradientUnits="userSpaceOnUse" gradientTransform="matrix(28.1648,0,0,28.1648,19.6234,16.7905)"><stop offset="0" style="stop-color:rgb(28,10,0);stop-opacity:0.85"/><stop offset="0.77" style="stop-color:rgb(28,10,0);stop-opacity:1"/><stop offset="1" style="stop-color:rgb(28,10,0);stop-opacity:1"/></radialGradient>
    </defs>
</svg>
