<?xml version="1.0" encoding="UTF-8"?>
<!-- Generated by Pixelmator Pro 3.6.13 -->
<svg width="3000" height="3000" viewBox="0 0 3000 3000" xmlns="http://www.w3.org/2000/svg">
    <path id="Rectangle" fill="#175e84" fill-rule="evenodd" stroke="none" d="M 0 3000 L 3000 3000 L 3000 0 L 0 0 Z"/>
    <path id="JG" fill="#ffffff" fill-rule="evenodd" stroke="none" d="M 2170.01001 1426.016357 C 2170.01001 1426.016357 2170.01001 1454.986084 2170.01001 1478.161743 C 2316.790039 1478.161743 2349.622314 1578.59021 2349.622314 1700.262939 C 2349.622314 1750.476929 2349.622314 1791.034424 2349.622314 1806.484985 C 2349.622314 2053.692871 2179.666992 2047.899048 2123.658936 2045.967651 C 1893.832642 2036.311279 1729.671021 1821.935669 1729.671021 1424.084961 C 1729.671021 1026.234863 1880.313477 817.65332 2108.208252 804.133545 C 2378.592041 786.752197 2506.058594 929.669189 2556.272705 1165.289429 L 2608.417969 1165.289429 L 2579.448486 730.743896 C 2579.448486 730.743896 2556.272705 730.743896 2538.890869 730.743896 C 2507.989746 842.760254 2330.309326 730.743896 2108.208252 730.743896 C 1654.349976 730.743896 1374.309692 1030.097534 1374.309692 1424.084961 C 1374.309692 1820.004272 1681.388428 2117.42627 2123.658936 2117.42627 C 2345.759521 2117.42627 2600.692871 2005.410156 2629.662598 2117.42627 C 2648.975586 2117.42627 2670.219971 2117.42627 2670.219971 2117.42627 L 2670.219971 1700.262939 C 2670.219971 1578.59021 2704.983643 1478.161743 2851.763428 1478.161743 C 2851.763428 1437.604614 2851.763428 1426.016357 2851.763428 1426.016357 Z M 626.891846 748.125977 C 626.891846 748.125977 626.891846 779.026611 626.891846 802.202637 C 773.671509 802.202637 845.130005 875.592285 845.130005 1024.303467 L 845.130005 1673.224487 C 845.130005 1976.44043 812.297729 2198.54126 624.960449 2198.54126 C 530.326111 2198.54126 455.005005 2134.808105 451.142365 2038.242432 C 447.279724 1945.539429 497.493835 1889.531616 576.677612 1881.80603 C 576.677612 1808.416382 520.669556 1707.987915 387.409058 1702.194092 C 256.079803 1696.400146 132.475845 1800.691162 149.857666 1960.98999 C 174.964737 2200.472656 435.691925 2270 636.548401 2270 C 957.146179 2270 1173.453247 2109.700928 1173.453247 1727.30127 L 1173.453247 1024.303467 C 1173.453247 902.630615 1208.216675 802.202637 1354.99646 802.202637 C 1354.99646 779.026611 1354.99646 748.125977 1354.99646 748.125977 Z"/>
</svg>
