<?xml version="1.0" encoding="UTF-8" standalone="no"?>
<!DOCTYPE svg PUBLIC "-//W3C//DTD SVG 1.1//EN" "http://www.w3.org/Graphics/SVG/1.1/DTD/svg11.dtd">
<svg width="100%" height="100%" viewBox="0 0 200 200" version="1.1" xmlns="http://www.w3.org/2000/svg" xmlns:xlink="http://www.w3.org/1999/xlink" xml:space="preserve" xmlns:serif="http://www.serif.com/" style="fill-rule:evenodd;clip-rule:evenodd;stroke-linejoin:round;stroke-miterlimit:2;">
    <g transform="matrix(4.16667,0,0,4.16667,0,0)">
        <path d="M0,24C0,10.745 10.745,0 24,0C37.255,0 48,10.745 48,24C48,37.255 37.255,48 24,48C10.745,48 0,37.255 0,24Z" style="fill:white;fill-rule:nonzero;"/>
        <g transform="matrix(1,0,0,1,0.06935,0.4)">
            <g transform="matrix(1.27778,0,0,1.27778,-6.6474,-7.11111)">
                <path d="M13.517,37.121L11.2,11.2L36.661,11.2L34.342,37.117L23.915,40L13.517,37.121Z" style="fill:rgb(228,77,38);fill-rule:nonzero;"/>
            </g>
            <g transform="matrix(1.27778,0,0,1.27778,-6.6474,-7.11111)">
                <path d="M23.931,37.704L32.378,35.38L34.365,13.287L23.931,13.287L23.931,37.704Z" style="fill:rgb(241,101,41);fill-rule:nonzero;"/>
            </g>
            <g transform="matrix(1.27778,0,0,1.27778,-6.6474,-7.11111)">
                <path d="M23.93,22.843L19.745,22.843L19.456,19.592L23.93,19.592L23.93,16.417L16,16.417L16.076,17.269L16.853,26.017L23.93,26.017L23.93,22.843Z" style="fill:rgb(235,235,235);fill-rule:nonzero;"/>
            </g>
            <g transform="matrix(1.27778,0,0,1.27778,-6.6474,-7.11111)">
                <path d="M23.931,31.22L23.917,31.224L20.42,30.255L20.196,27.687L17.044,27.687L17.484,32.743L23.916,34.574L23.931,34.57L23.931,31.22Z" style="fill:rgb(235,235,235);fill-rule:nonzero;"/>
            </g>
            <g transform="matrix(1.27778,0,0,1.27778,-6.64779,-7.11111)">
                <path d="M23.931,22.843L23.931,26.017L27.8,26.017L27.435,30.265L23.931,31.232L23.931,34.574L30.373,32.749L30.42,32.206L31.158,23.75L31.235,22.887L30.388,22.887L23.931,22.843Z" style="fill:white;fill-rule:nonzero;"/>
            </g>
            <g transform="matrix(1.27778,0,0,1.27778,-6.64779,-7.11111)">
                <path d="M23.931,16.417L23.931,19.592L31.568,19.548L31.578,19.548L31.641,18.844L31.785,17.257L31.861,16.417L23.931,16.417Z" style="fill:white;fill-rule:nonzero;"/>
            </g>
        </g>
    </g>
</svg>
